<?xml version="1.0" encoding="UTF-8"?>

<svg xmlns="http://www.w3.org/2000/svg" xmlns:xlink="http://www.w3.org/1999/xlink" version="1.1" id="Capa_1" x="0px" y="0px" viewBox="0 0 485.275 485.275" style="enable-background:new 0 0 485.275 485.275;" xml:space="preserve">
<g>
	<path d="M466.378,291.295c5.028-31.18-3.052-62.398-3.537-64.225c-0.009-0.034-0.026-0.063-0.036-0.096   c2.302-24.842-13.586-42.435-18.601-47.316c2.155-9.993,1.03-18.589-2.684-24.967c-8.121-13.945-20.207-19.107-25.375-20.751   c-3.849-18.327-18.189-27.932-23.616-30.968c0.013-0.96,0.018-1.923-0.01-2.901c-0.277-9.736-2.48-18.144-4.047-22.978   c12.134-1.817,23.664-3.394,33.568-4.497c0.746-0.09,7.371-1.038,10.347-6.834c2.263-4.408,1.582-9.963-2.023-16.51   c-1.174-2.132-4.747-8.62-11.082-8.62c-3.944,0-7.251,2.477-10.45,4.872c-2.883,2.159-5.865,4.393-9.137,4.84   c-1.329,0.181-3.904,0.544-7.449,1.044c-23.693,3.341-90.135,12.708-117.739,14.85c-0.762-5.01-1.391-16.516,7.09-23.557   c1.312-1.089,1.846-2.856,1.356-4.49c-0.489-1.633-1.907-2.815-3.602-3.004l-36-4c-0.312-0.034-0.627-0.034-0.938,0l-36,4   c-1.695,0.188-3.113,1.371-3.602,3.004c-0.489,1.634,0.045,3.401,1.356,4.49c8.42,6.989,7.82,18.533,7.079,23.556   c-27.612-2.145-94.039-11.509-117.728-14.85c-3.545-0.499-6.12-0.862-7.448-1.044c-3.272-0.446-6.253-2.68-9.137-4.839   c-3.198-2.396-6.506-4.872-10.449-4.872c-6.336,0-9.909,6.487-11.083,8.619c-3.606,6.548-4.287,12.103-2.024,16.51   c2.976,5.797,9.601,6.745,10.379,6.838c9.733,1.085,21.04,2.626,32.949,4.405c-1.558,4.876-3.713,13.257-3.979,22.946   c-0.033,1.196-0.028,2.375-0.001,3.542c-5.535,3.034-19.706,12.404-23.57,30.439c-5.154,1.635-17.265,6.791-25.399,20.759   c-3.637,6.245-4.798,14.614-2.822,24.342c-5.178,5.262-20.843,23.418-18.43,48.211c-1.415,5.647-8.164,34.98-3.583,63.997   c-4.139,9.686-36.771,89.613-5.509,131.016c15.079,19.97,42.884,31.275,78.292,31.834c30.448,0.48,63.213-7.384,85.489-20.527   c16.055-9.473,25.821-17.186,32.952-22.819c8.708-6.879,13.505-10.667,22.124-11.99l6.715,14.903   c0.685,1.52,2.195,2.499,3.862,2.504c0.004,0,0.008,0,0.013,0c1.662,0,3.172-0.97,3.865-2.481l6.831-14.928   c8.48,1.305,13.103,5.016,21.49,11.75c7.074,5.68,16.762,13.459,33.038,23.061c21.631,12.763,53.145,20.549,82.838,20.549   c0.885,0,1.77-0.007,2.651-0.02c35.408-0.56,63.213-11.865,78.292-31.835C503.066,380.935,470.618,301.232,466.378,291.295z    M427.051,418.674c-48.577,17.468-88.628-8.283-95.938-15.594c-2.767-2.768-4.408-6.656-3.933-7.539   c0.01-0.018,1.019-1.128,5.557-1.128c2.495,0,6.056,0.335,11.103,1.372c3.736,0.768,7.456,1.129,11.157,1.128   c40.155-0.004,77.593-42.525,97.274-69.47c0.517-0.708,1.018-1.423,1.504-2.148C470.195,396.937,437.744,414.828,427.051,418.674z    M411.74,167.574c2.442,5.374,3.515,14.834-8.284,26.924c-27.295,27.969-61.585,38.252-85.545,41.953   c-23.297,3.601-41.656,1.861-45.55,1.415c-2.73-1.62-4.276-3.52-4.718-5.792c-0.671-3.445,1.232-7.454,2.79-9.905   C305.812,225.021,392.57,207.344,411.74,167.574z M379.529,159.61c-13.504,15.563-55.45,31.577-106.88,30.93   c-1.533-1.229-4.649-4.192-5.26-8.37c-0.515-3.523,0.826-7.38,3.99-11.486c11.273-0.138,64.563-1.953,97.69-23.616   c5.552-3.632,10.154-7.972,13.77-12.948C385.752,139.368,388.67,149.074,379.529,159.61z M393.432,59.806   c3.528-0.497,6.09-0.858,7.413-1.039c5.454-0.745,9.684-3.913,13.083-6.458c1.89-1.415,4.241-3.176,5.354-3.176   c0.487,0,1.802,0.889,3.637,4.221c2.055,3.731,2.755,6.83,1.921,8.5c-0.917,1.835-3.789,2.299-3.774,2.299h0.001   c-48.876,5.45-136.829,22.235-143.683,23.55c-7.465-0.139-12.529-4.274-14.797-8.149c-1.388-2.371-1.398-4.029-1.233-4.484   c0.169-0.057,0.724-0.123,1.418-0.037c0.783,0.1,1.767,0.148,3.008,0.148C284.391,75.18,366.462,63.609,393.432,59.806z    M359.732,98.779c-0.478,12.582-6.101,21.165-16.712,25.512c-22.874,9.369-52.863,12.173-64.111,12.925   c0.116-6.891,0.026-19.51-1.815-28.078c10.238-1.849,34.541-6.334,46.939-9.434c16.711-4.177,23.679-13.034,25.799-16.411   c2.587-0.438,5.191-0.874,7.808-1.309C358.493,85.019,360.007,91.536,359.732,98.779z M60.924,61.853   c-0.834-1.67-0.134-4.768,1.921-8.5c1.834-3.331,3.149-4.22,3.637-4.22c1.114,0,3.465,1.761,5.354,3.176   c3.399,2.545,7.628,5.713,13.083,6.457c1.322,0.181,3.884,0.542,7.411,1.039c26.97,3.803,109.042,15.374,127.655,15.375   c0.001,0,0.002,0,0.004,0c1.239,0,2.222-0.049,3.004-0.148c0.695-0.086,1.248-0.02,1.417,0.037   c0.165,0.455,0.155,2.113-1.232,4.484c-2.268,3.875-7.333,8.011-14.798,8.149c-6.854-1.314-94.805-18.1-143.606-23.541   C64.745,64.158,61.846,63.699,60.924,61.853z M161.242,99.703c12.398,3.1,36.701,7.585,46.939,9.434   c-1.841,8.568-1.931,21.188-1.814,28.078c-11.249-0.752-41.237-3.556-64.112-12.925c-22.461-9.2-16.645-35.341-14.609-42.386   c2.54,0.421,5.069,0.845,7.582,1.269C137.472,86.645,144.654,95.557,161.242,99.703z M103.311,135.276   c3.475,4.498,7.782,8.447,12.895,11.791c33.13,21.664,86.421,23.479,97.69,23.616c3.164,4.107,4.506,7.964,3.99,11.486   c-0.612,4.184-3.737,7.151-5.258,8.37c-51.443,0.643-93.377-15.367-106.881-30.931C96.413,148.851,100.111,139.838,103.311,135.276   z M73.83,168.173c18.374,36.607,94.14,54.294,132.951,54.292c2.905,0,5.608-0.099,8.06-0.297c1.563,2.456,3.462,6.463,2.791,9.905   c-0.442,2.271-1.988,4.172-4.717,5.792c-8.271,0.936-81.411,7.543-131.096-43.368c-6.488-6.648-9.711-13.189-9.579-19.441   C72.296,172.38,72.98,170.053,73.83,168.173z M31.5,325.295c0.486,0.726,0.987,1.439,1.504,2.148   c19.683,26.945,57.117,69.472,97.274,69.47c3.699,0,7.423-0.36,11.157-1.128c14.231-2.923,16.645-0.271,16.66-0.243   c0.476,0.882-1.166,4.771-3.932,7.538c-7.311,7.311-47.365,33.061-95.94,15.593C47.531,414.828,15.081,396.938,31.5,325.295z    M465.081,417.134c-30.057,39.807-112.063,33.071-152.679,9.109c-15.75-9.293-25.163-16.851-32.035-22.369   c-9.637-7.737-16.002-12.849-29.038-13.935c-1.784-0.151-3.472,0.837-4.218,2.467l-4.222,9.227l-4.147-9.204   c-0.74-1.642-2.44-2.639-4.228-2.489c-13.129,1.094-19.343,6.002-29.638,14.135c-7.326,5.787-16.443,12.989-32.002,22.169   c-40.617,23.964-122.623,30.696-152.679-9.109c-22.773-30.159-6.655-86.407,2.161-111.136c0.896,2.821,1.929,5.599,3.125,8.308   c-0.008,0.025-0.015,0.052-0.022,0.078c-8.684,32.366-9.3,59.031-1.833,79.254c5.938,16.081,17.204,27.814,31.721,33.033   c13.046,4.692,25.471,6.547,36.926,6.547c35.326-0.001,61.414-17.643,67.901-24.128c3.343-3.345,8.775-11.323,5.404-17.579   c-4.071-7.557-16.705-5.931-25.854-4.052c-41.079,8.442-83.52-42.664-99.857-65.029c-16.722-22.893-15.063-57.289-12.24-77.145   c1.617,3.547,3.58,7.257,5.887,11.088c-1.533,7.425-5.524,34.208,10.796,56.254c0.518,0.699,1.074,1.457,1.669,2.268   c13.756,18.735,47.034,64.059,94.677,64.059c7.962-0.001,16.326-1.267,25.066-4.134c49.083-16.104,56.163-49.446,56.456-50.944   c1.466-8.376-1.161-12.11-2.001-13.056c-1.302-1.464-3.433-1.85-5.164-0.933c-0.272,0.144-27.73,14.458-70.147,18.381   c-18.111,1.674-44.084-11.355-69.489-34.854c-13.461-12.452-25.283-26.595-33.314-39.355c-0.201-0.551-0.514-1.056-0.919-1.48   c-4.97-8.129-8.34-15.637-9.539-21.709c-3.784-19.157,6.075-34.736,12.177-42.224c1.032,2.687,2.26,5.439,3.743,8.261   c-3.135,6.664-12.865,31.23,2.935,51.44c16.761,21.441,61.329,60.164,114.291,60.163c2.516,0,5.053-0.087,7.605-0.269l1.272-0.089   c13.593-0.95,34.134-2.385,47.964-17.912c9.577-10.754,2.791-23.987-2.136-29.483c-0.879-0.982-2.171-1.494-3.476-1.401   c-1.486,0.109-3.247,0.267-5.255,0.446c-22.785,2.04-76.148,6.817-116.911-24.258c-39.271-29.94-51.318-61.799-42.714-76.574   c5.205-8.938,12.317-13.434,17.073-15.582c-0.006,4.499,0.601,9.412,2.024,14.771c-2.207,2.595-6.221,8.403-6.452,16.531   c-0.246,8.678,3.788,17.34,11.99,25.744c29.011,29.727,65.287,40.586,90.609,44.46c11.667,1.785,22.05,2.305,30.191,2.305   c10.947,0,17.839-0.941,18.327-1.009c0.5-0.071,0.984-0.23,1.429-0.471c6.807-3.681,9.028-8.597,9.693-12.072   c1.766-9.23-5.081-17.735-5.868-18.675c-0.92-1.1-2.33-1.662-3.756-1.493c-15.376,1.814-46.537-1.337-76.332-10.865   c-33.128-10.593-54.518-25.544-60.229-42.098c-9.666-28.024,5.613-42.34,13.83-47.734c0.928,5.346,2.538,10.329,4.858,14.881   c-6.384,7.102-12.712,21.901,0.837,37.517c16.998,19.591,64.031,33.877,110.64,33.876c1.382,0,2.767-0.012,4.147-0.037   c0.766-0.015,1.513-0.235,2.164-0.639c0.349-0.217,8.558-5.411,10.002-14.863c0.997-6.523-1.407-13.203-7.145-19.851   c-0.814-0.943-1.998-1.486-3.248-1.474c-0.615-0.002-60.745,0.18-95.028-22.239c-13.443-8.791-20.052-22.088-19.642-39.522   c0.228-9.699,2.655-18.122,4.017-22.128c4.611,0.715,9.275,1.455,13.942,2.212c-4.235,15.09-4.722,41.572,19.858,51.641   c30.001,12.289,69.885,13.748,71.568,13.805c0.047,0.001,0.095,0.002,0.142,0.002c1.131,0,2.218-0.451,3.018-1.257   c0.832-0.84,1.278-1.988,1.229-3.17c-0.297-7.162-0.426-27.244,2.513-34.064c0.514-1.193,0.454-2.556-0.163-3.699   c-0.617-1.144-1.723-1.942-3.002-2.168c-0.355-0.063-35.7-6.314-51.034-10.147c-5.991-1.497-10.42-3.659-13.64-5.81   c31.467,5.468,57.041,10.388,57.526,10.481c0.266,0.052,0.535,0.077,0.805,0.077c15.479,0,24.983-11.972,24.983-20.555   c0-2.568-0.827-4.799-2.392-6.45c-1.175-1.239-3.323-2.718-6.883-2.718c-0.574,0-1.174,0.04-1.784,0.117   c-0.235,0.03-0.797,0.08-1.93,0.08c-0.001,0-0.002,0-0.003,0c-0.065,0-0.139-0.002-0.206-0.002   c0.728-5.513,0.985-15.407-4.382-23.937l27.483-3.054l27.483,3.054c-5.367,8.529-5.11,18.424-4.382,23.937   c-0.066,0-0.14,0.002-0.205,0.002c-1.136,0-1.699-0.05-1.934-0.08c-0.61-0.077-1.211-0.117-1.784-0.117   c-3.56,0-5.707,1.479-6.882,2.718c-1.565,1.651-2.392,3.882-2.392,6.45c0,8.583,9.504,20.555,24.983,20.555   c0.27,0,0.54-0.025,0.805-0.077c0.482-0.093,25.711-4.946,56.887-10.37c-3.165,2.099-7.537,4.211-13.489,5.699   c-15.334,3.833-50.678,10.084-51.034,10.147c-1.279,0.226-2.385,1.024-3.002,2.168c-0.617,1.143-0.676,2.506-0.163,3.699   c2.939,6.82,2.811,26.902,2.514,34.064c-0.049,1.182,0.396,2.33,1.229,3.17c0.799,0.806,1.886,1.257,3.017,1.257   c0.047,0,0.094-0.001,0.142-0.002c1.683-0.057,41.566-1.516,71.567-13.805c24.54-10.052,24.095-36.461,19.879-51.564   c4.629-0.751,9.258-1.487,13.837-2.198c3.268,9.216,12.785,43.037-15.541,61.56c-34.242,22.393-94.447,22.234-95.029,22.239   c-1.238,0.008-2.434,0.53-3.247,1.474c-5.738,6.647-8.142,13.327-7.145,19.852c1.444,9.451,9.653,14.646,10.002,14.862   c0.65,0.403,1.398,0.624,2.164,0.639c1.384,0.025,2.762,0.037,4.148,0.037c46.606-0.001,93.643-14.286,110.64-33.875   c13.553-15.62,7.641-31.591,1.684-39.247c1.935-4.194,3.286-8.734,4.08-13.564c8.229,5.558,23.419,20.147,13.761,48.147   c-5.71,16.555-27.1,31.505-60.228,42.099c-29.794,9.526-60.953,12.678-76.332,10.864c-1.422-0.168-2.835,0.394-3.756,1.492   c-0.787,0.939-7.633,9.445-5.868,18.676c0.665,3.476,2.886,8.392,9.693,12.072c0.444,0.24,0.928,0.399,1.428,0.471   c0.489,0.068,7.376,1.009,18.328,1.009c8.14,0,18.527-0.52,30.191-2.305c25.323-3.874,61.599-14.732,90.609-44.46   c8.256-8.46,12.365-17.184,12.213-25.928c-0.152-8.71-4.596-14.749-6.517-16.959c1.305-5.107,1.871-9.814,1.872-14.144   c4.756,2.156,11.881,6.659,17.067,15.566c8.604,14.775-3.443,46.634-42.715,76.574c-40.763,31.076-94.124,26.298-116.91,24.258   c-2.007-0.18-3.769-0.337-5.255-0.446c-1.308-0.087-2.597,0.421-3.476,1.401c-4.927,5.495-11.713,18.729-2.136,29.483   c13.829,15.527,34.371,16.962,47.964,17.912l1.272,0.089c2.555,0.182,5.085,0.269,7.605,0.269   c52.956-0.004,97.531-38.724,114.291-60.163c15.8-20.211,6.07-44.775,2.934-51.44c1.408-2.679,2.583-5.294,3.584-7.853   c6.04,7.064,16.186,22.322,12.336,41.816c-1.2,6.075-4.573,13.588-9.548,21.722c-0.397,0.42-0.705,0.916-0.904,1.457   c-8.032,12.764-19.856,26.91-33.321,39.366c-23.947,22.151-48.399,35-66.293,34.998c-1.089,0-2.157-0.048-3.196-0.144   c-42.289-3.911-69.875-18.238-70.146-18.381c-1.732-0.917-3.863-0.53-5.164,0.932c-0.841,0.945-3.469,4.681-1.987,13.142   c0.277,1.412,7.357,34.754,56.44,50.858c8.744,2.868,17.101,4.135,25.066,4.134c47.637-0.006,80.921-45.323,94.677-64.057   c0.596-0.811,1.152-1.57,1.67-2.27c16.318-22.044,12.329-48.826,10.795-56.253c2.307-3.829,4.268-7.537,5.885-11.082   c2.815,20.011,4.404,54.355-12.237,77.138c-15.111,20.688-52.543,65.968-90.592,65.962c-3.085-0.001-6.183-0.299-9.265-0.933   c-9.149-1.88-21.784-3.506-25.854,4.052c-3.371,6.256,2.061,14.234,5.405,17.579c6.486,6.486,32.57,24.13,67.9,24.128   c11.454,0,23.883-1.856,36.926-6.546c14.518-5.221,25.783-16.953,31.721-33.034c7.468-20.223,6.851-46.888-1.833-79.255   c-0.008-0.029-0.016-0.058-0.025-0.087c1.194-2.712,2.229-5.487,3.126-8.303C471.733,330.719,487.855,386.973,465.081,417.134z    M40.685,267.199c7.842,10.895,17.791,22.158,28.921,32.454c27.551,25.485,55.266,39.001,76.043,37.079   c34.025-3.146,58.512-12.579,68.459-17.008c-0.026,0.735-0.111,1.598-0.286,2.599c-0.058,0.297-6.346,29.852-50.749,44.421   c-55.19,18.102-95.185-36.371-110.242-56.879c-0.603-0.82-1.166-1.588-1.689-2.295C41.023,293.9,39.998,277.619,40.685,267.199z    M53.046,206.082c7.842,11.587,19.478,23.917,35.616,36.221c43.386,33.076,99.052,28.092,122.822,25.964   c1.029-0.092,1.991-0.178,2.883-0.255c2.256,3.175,6.289,10.498,0.878,16.574c-11.528,12.942-29.261,14.182-42.209,15.086   l-1.281,0.09c-48.881,3.454-95.313-31.981-114.599-56.651C47.233,230.415,50.13,214.836,53.046,206.082z M428.119,243.111   c-19.286,24.671-65.722,60.117-114.598,56.651l-1.281-0.09c-12.948-0.904-30.681-2.144-42.208-15.086   c-5.363-6.021-1.345-13.385,0.893-16.572c0.888,0.076,1.845,0.162,2.868,0.253c23.769,2.129,79.434,7.112,122.821-25.964   c16.149-12.311,27.789-24.648,35.631-36.242C435.176,214.794,438.092,230.353,428.119,243.111z M434.132,307.571   c-0.523,0.707-1.087,1.475-1.69,2.295c-15.058,20.508-55.056,74.979-110.242,56.878c-43.652-14.322-50.372-42.663-50.744-44.397   c-0.174-1.012-0.259-1.88-0.285-2.62c9.95,4.43,34.434,13.86,68.453,17.006c1.304,0.12,2.631,0.18,3.987,0.18   c20.262-0.001,46.234-13.372,72.057-37.259c11.13-10.295,21.078-21.559,28.921-32.452   C445.277,277.622,444.251,293.901,434.132,307.571z"/>
	<path d="M233.691,168.229h20c2.347,0,4.25-1.903,4.25-4.25c0-2.348-1.903-4.25-4.25-4.25h-20c-2.347,0-4.25,1.902-4.25,4.25   C229.441,166.326,231.344,168.229,233.691,168.229z"/>
	<path d="M233.691,116.895h20c2.347,0,4.25-1.902,4.25-4.25c0-2.347-1.903-4.25-4.25-4.25h-20c-2.347,0-4.25,1.903-4.25,4.25   C229.441,114.993,231.344,116.895,233.691,116.895z"/>
	<path d="M259.691,259.145c2.347,0,4.25-1.902,4.25-4.25c0-2.347-1.903-4.25-4.25-4.25h-32c-2.347,0-4.25,1.903-4.25,4.25   c0,2.348,1.903,4.25,4.25,4.25H259.691z"/>
	<path d="M229.691,304.603h28c2.347,0,4.25-1.902,4.25-4.25c0-2.347-1.903-4.25-4.25-4.25h-28c-2.347,0-4.25,1.903-4.25,4.25   C225.441,302.701,227.344,304.603,229.691,304.603z"/>
	<path d="M231.357,213.687h24.667c2.347,0,4.25-1.903,4.25-4.25c0-2.348-1.903-4.25-4.25-4.25h-24.667   c-2.347,0-4.25,1.902-4.25,4.25C227.107,211.784,229.01,213.687,231.357,213.687z"/>
	<path d="M263.024,341.561h-38.667c-2.347,0-4.25,1.903-4.25,4.25c0,2.348,1.903,4.25,4.25,4.25h38.667   c2.347,0,4.25-1.902,4.25-4.25C267.274,343.464,265.371,341.561,263.024,341.561z"/>
</g>
<g>
</g>
<g>
</g>
<g>
</g>
<g>
</g>
<g>
</g>
<g>
</g>
<g>
</g>
<g>
</g>
<g>
</g>
<g>
</g>
<g>
</g>
<g>
</g>
<g>
</g>
<g>
</g>
<g>
</g>
</svg>